<?xml version="1.0" encoding="utf-8"?>
<!-- Generator: Adobe Illustrator 27.5.0, SVG Export Plug-In . SVG Version: 6.00 Build 0)  -->
<svg version="1.1" xmlns="http://www.w3.org/2000/svg" xmlns:xlink="http://www.w3.org/1999/xlink" x="0px" y="0px"
	 viewBox="0 0 500 500" style="enable-background:new 0 0 500 500;" xml:space="preserve">
<g id="BACKGROUND">
	<rect style="fill:#FFFEF1;" width="500" height="500"/>
</g>
<g id="OBJECTS">
	<g>
		<g>
			<defs>
				<rect id="SVGID_1_" width="500" height="500"/>
			</defs>
			<clipPath id="SVGID_00000109749676954555116710000016428884115355870085_">
				<use xlink:href="#SVGID_1_"  style="overflow:visible;"/>
			</clipPath>
			<g style="opacity:0.22;clip-path:url(#SVGID_00000109749676954555116710000016428884115355870085_);">
				<rect x="290.643" y="48.534" style="fill:#AF864D;" width="33.772" height="12.824"/>
				<rect x="65.335" y="38.938" style="fill:#AF864D;" width="33.771" height="12.824"/>
				<rect x="48.835" y="216.651" style="fill:#AF864D;" width="33.772" height="12.824"/>
				<rect x="488.466" y="121.405" style="fill:#AF864D;" width="33.771" height="12.824"/>
				<rect x="437.132" y="33.429" style="fill:#AF864D;" width="33.771" height="12.824"/>
				<rect x="481.332" y="256.652" style="fill:#AF864D;" width="33.772" height="12.824"/>
				<rect x="273.757" y="29.08" style="fill:#CDA36B;" width="33.772" height="12.824"/>
				<rect x="111.197" y="38.938" style="fill:#CDA36B;" width="33.772" height="12.824"/>
				<rect x="33.388" y="118.19" style="fill:#CDA36B;" width="33.772" height="12.824"/>
				<rect x="56.68" y="235.541" style="fill:#CDA36B;" width="33.772" height="12.824"/>
				<rect x="86.62" y="307.332" style="fill:#CDA36B;" width="33.772" height="12.824"/>
				<rect x="471.58" y="102.77" style="fill:#CDA36B;" width="33.772" height="12.824"/>
				<rect x="471.574" y="275.037" style="fill:#CDA36B;" width="33.772" height="12.824"/>
				
					<rect x="246.626" y="48.534" style="fill:none;stroke:#CDA36B;stroke-width:1.3046;stroke-miterlimit:10;" width="33.772" height="12.824"/>
				
					<rect x="94.311" y="57.573" style="fill:none;stroke:#CDA36B;stroke-width:1.3046;stroke-miterlimit:10;" width="33.772" height="12.824"/>
				
					<rect x="11.221" y="136.826" style="fill:none;stroke:#CDA36B;stroke-width:1.3046;stroke-miterlimit:10;" width="33.772" height="12.824"/>
				
					<rect x="96.792" y="287.093" style="fill:none;stroke:#CDA36B;stroke-width:1.3046;stroke-miterlimit:10;" width="33.772" height="12.824"/>
				
					<rect x="445.72" y="121.405" style="fill:none;stroke:#CDA36B;stroke-width:1.3046;stroke-miterlimit:10;" width="33.772" height="12.824"/>
				
					<rect x="426.842" y="15.008" style="fill:none;stroke:#CDA36B;stroke-width:1.3046;stroke-miterlimit:10;" width="33.772" height="12.824"/>
				<rect x="37.379" y="406.021" style="fill:#AF864D;" width="33.772" height="12.824"/>
				<rect x="198.799" y="445.436" style="fill:#AF864D;" width="33.772" height="12.824"/>
				<rect x="83.241" y="406.021" style="fill:#CDA36B;" width="33.772" height="12.824"/>
				<rect x="99.164" y="490.629" style="fill:#CDA36B;" width="33.772" height="12.824"/>
				
					<rect x="66.355" y="424.656" style="fill:none;stroke:#CDA36B;stroke-width:1.3046;stroke-miterlimit:10;" width="33.772" height="12.824"/>
				
					<rect x="109.336" y="470.39" style="fill:none;stroke:#CDA36B;stroke-width:1.3046;stroke-miterlimit:10;" width="33.772" height="12.824"/>
				
					<rect x="188.509" y="427.016" style="fill:none;stroke:#CDA36B;stroke-width:1.3046;stroke-miterlimit:10;" width="33.772" height="12.824"/>
				<rect x="411.728" y="466.115" style="fill:#AF864D;" width="33.771" height="12.824"/>
				<rect x="235.294" y="346.185" style="fill:#AF864D;" width="33.772" height="12.824"/>
				<rect x="429.635" y="379.54" style="fill:#AF864D;" width="33.772" height="12.824"/>
				<rect x="394.842" y="446.661" style="fill:#CDA36B;" width="33.771" height="12.824"/>
				<rect x="281.157" y="346.185" style="fill:#CDA36B;" width="33.772" height="12.824"/>
				<rect x="412.749" y="360.905" style="fill:#CDA36B;" width="33.772" height="12.824"/>
				
					<rect x="367.711" y="466.115" style="fill:none;stroke:#CDA36B;stroke-width:1.3046;stroke-miterlimit:10;" width="33.772" height="12.824"/>
				
					<rect x="264.271" y="364.82" style="fill:none;stroke:#CDA36B;stroke-width:1.3046;stroke-miterlimit:10;" width="33.772" height="12.824"/>
				
					<rect x="386.889" y="379.54" style="fill:none;stroke:#CDA36B;stroke-width:1.3046;stroke-miterlimit:10;" width="33.772" height="12.824"/>
			</g>
		</g>
		<path style="opacity:0.47;fill:#AF864D;" d="M431.675,315.812H73.139c-3.478,0-6.297-2.819-6.297-6.297V111.075
			c0-3.478,2.819-6.297,6.297-6.297h358.536c3.478,0,6.297,2.819,6.297,6.297v198.441
			C437.971,312.993,435.152,315.812,431.675,315.812z"/>
		<path style="fill:#A66036;" d="M429.191,310.293H70.655c-3.478,0-6.297-2.819-6.297-6.297V105.556
			c0-3.478,2.819-6.297,6.297-6.297h358.536c3.478,0,6.297,2.819,6.297,6.297v198.441
			C435.488,307.474,432.669,310.293,429.191,310.293z"/>
		<path style="fill:#7E3323;" d="M423.563,303.729H76.284c-3.478,0-6.297-2.819-6.297-6.297V112.12c0-3.478,2.819-6.297,6.297-6.297
			h347.279c3.478,0,6.297,2.819,6.297,6.297v185.312C429.859,300.909,427.04,303.729,423.563,303.729z"/>
		<path style="fill:#FFFFFF;" d="M421.337,301.772H78.509c-3.478,0-6.297-2.819-6.297-6.297V114.077
			c0-3.478,2.819-6.297,6.297-6.297h342.828c3.478,0,6.297,2.819,6.297,6.297v181.399
			C427.634,298.953,424.815,301.772,421.337,301.772z"/>
		<g>
			<rect x="95.549" y="136.156" style="fill:#E4E4E5;" width="91.268" height="143.084"/>
			<rect x="102.485" y="145.849" style="fill:#BEBCBF;" width="77.397" height="44.887"/>
			<rect x="102.485" y="196.583" style="fill:#BEBCBF;" width="36.1" height="4.369"/>
			<rect x="143.891" y="196.583" style="fill:#BEBCBF;" width="36.1" height="4.369"/>
			<rect x="102.485" y="207.33" style="fill:#BEBCBF;" width="36.1" height="4.369"/>
			<rect x="143.891" y="207.33" style="fill:#BEBCBF;" width="36.1" height="4.369"/>
			<rect x="102.485" y="218.077" style="fill:#BEBCBF;" width="36.1" height="4.369"/>
			<rect x="143.891" y="218.077" style="fill:#BEBCBF;" width="36.1" height="4.369"/>
			<rect x="102.485" y="228.824" style="fill:#BEBCBF;" width="36.1" height="4.369"/>
			<rect x="143.891" y="228.824" style="fill:#BEBCBF;" width="36.1" height="4.369"/>
			<rect x="102.485" y="239.571" style="fill:#BEBCBF;" width="36.1" height="4.369"/>
			<rect x="143.891" y="239.571" style="fill:#BEBCBF;" width="36.1" height="4.369"/>
			<rect x="102.485" y="250.318" style="fill:#BEBCBF;" width="36.1" height="4.369"/>
			<rect x="143.891" y="250.318" style="fill:#BEBCBF;" width="36.1" height="4.369"/>
			<rect x="102.485" y="261.065" style="fill:#BEBCBF;" width="36.1" height="4.369"/>
			<rect x="143.891" y="261.065" style="fill:#BEBCBF;" width="36.1" height="4.369"/>
			<rect x="106.969" y="153.729" style="fill:#FFFFFF;" width="68.428" height="3.797"/>
			<rect x="106.969" y="165.239" style="fill:#FFFFFF;" width="68.428" height="3.797"/>
			<rect x="116.783" y="176.749" style="fill:#FFFFFF;" width="48.801" height="3.797"/>
			
				<rect x="96.651" y="130.663" transform="matrix(0.7071 0.7071 -0.7071 0.7071 127.7476 -28.4899)" style="fill:#BABBB5;" width="3.224" height="18.585"/>
			
				<rect x="182.065" y="130.663" transform="matrix(-0.7071 0.7071 -0.7071 -0.7071 412.5195 109.034)" style="fill:#BABBB5;" width="3.224" height="18.585"/>
			
				<rect x="96.651" y="265.968" transform="matrix(0.7071 -0.7071 0.7071 0.7071 -165.8579 150.1044)" style="fill:#BABBB5;" width="3.224" height="18.585"/>
			
				<rect x="182.065" y="265.968" transform="matrix(-0.7071 -0.7071 0.7071 -0.7071 118.9184 599.7784)" style="fill:#BABBB5;" width="3.224" height="18.585"/>
		</g>
		<g>
			<rect x="204.1" y="136.156" style="fill:#E4E4E5;" width="91.268" height="143.084"/>
			<text transform="matrix(1 0 0 1 212.3736 183.3259)" style="fill:#AFAEB1; font-family:'Poppins-Black'; font-size:34.3416px;">live</text>
			<rect x="211.035" y="145.849" style="fill:#BEBCBF;" width="77.397" height="4.441"/>
			<rect x="211.035" y="194.048" style="fill:#BEBCBF;" width="77.397" height="4.441"/>
			<g>
				<rect x="211.035" y="210.74" style="fill:#BEBCBF;" width="41.132" height="4.203"/>
				<rect x="211.035" y="223.128" style="fill:#BEBCBF;" width="41.132" height="4.203"/>
				<rect x="211.035" y="235.516" style="fill:#BEBCBF;" width="41.132" height="4.203"/>
				<rect x="211.035" y="247.905" style="fill:#BEBCBF;" width="41.132" height="4.203"/>
				<rect x="211.035" y="260.293" style="fill:#BEBCBF;" width="41.132" height="4.203"/>
			</g>
			
				<rect x="205.202" y="130.663" transform="matrix(0.7071 0.7071 -0.7071 0.7071 159.543 -105.2485)" style="fill:#BABBB5;" width="3.224" height="18.585"/>
			
				<rect x="290.616" y="130.663" transform="matrix(-0.7071 0.7071 -0.7071 -0.7071 597.8254 32.2754)" style="fill:#BABBB5;" width="3.224" height="18.585"/>
			
				<rect x="205.202" y="265.968" transform="matrix(0.7071 -0.7071 0.7071 0.7071 -134.0642 226.8613)" style="fill:#BABBB5;" width="3.224" height="18.585"/>
			
				<rect x="290.616" y="265.968" transform="matrix(-0.7071 -0.7071 0.7071 -0.7071 304.226 676.5353)" style="fill:#BABBB5;" width="3.224" height="18.585"/>
			<rect x="261.347" y="210.823" style="fill:#BEBCBF;" width="25.938" height="30.778"/>
			<rect x="261.347" y="250.476" style="fill:#BEBCBF;" width="25.938" height="13.966"/>
		</g>
		<g>
			<rect x="312.651" y="136.156" style="fill:#E4E4E5;" width="91.268" height="143.084"/>
			<rect x="319.586" y="145.849" style="fill:#BEBCBF;" width="77.397" height="54.862"/>
			
				<ellipse transform="matrix(0.7071 -0.7071 0.7071 0.7071 -17.1307 303.8273)" style="fill:#FFFFFF;" cx="358.187" cy="172.592" rx="20.037" ry="20.037"/>
			
				<rect x="313.752" y="130.663" transform="matrix(0.7071 0.7071 -0.7071 0.7071 191.3385 -182.0071)" style="fill:#BABBB5;" width="3.224" height="18.585"/>
			
				<rect x="399.167" y="130.663" transform="matrix(-0.7071 0.7071 -0.7071 -0.7071 783.1354 -44.4748)" style="fill:#BABBB5;" width="3.224" height="18.585"/>
			
				<rect x="313.752" y="265.968" transform="matrix(0.7071 -0.7071 0.7071 0.7071 -102.2704 303.6182)" style="fill:#BABBB5;" width="3.224" height="18.585"/>
			
				<rect x="399.167" y="265.968" transform="matrix(-0.7071 -0.7071 0.7071 -0.7071 489.5441 753.2903)" style="fill:#BABBB5;" width="3.224" height="18.585"/>
			<rect x="332.051" y="210.706" style="fill:#BEBCBF;" width="52.706" height="4.356"/>
			<rect x="332.051" y="224.645" style="fill:#BEBCBF;" width="52.706" height="4.356"/>
			<rect x="332.051" y="238.584" style="fill:#BEBCBF;" width="52.706" height="4.356"/>
			<rect x="332.051" y="252.523" style="fill:#BEBCBF;" width="52.706" height="4.356"/>
			<rect x="332.051" y="266.461" style="fill:#BEBCBF;" width="52.706" height="4.356"/>
		</g>
		<g>
			<path style="fill:none;stroke:#E50057;stroke-width:3;stroke-miterlimit:10;" d="M357.931,216.619L129.876,245.02
				c-12.151,1.513-23.227-7.11-24.741-19.261l0,0c-1.513-12.151,7.11-23.227,19.261-24.741l228.055-28.401
				c12.151-1.513,23.227,7.11,24.741,19.261v0C378.705,204.029,370.081,215.106,357.931,216.619z"/>
			
				<text transform="matrix(0.9923 -0.1236 0.1236 0.9923 131.8574 234.585)" style="fill:#E50057; font-family:'Poppins-Black'; font-size:35.9846px; letter-spacing:4;">canceled</text>
		</g>
		<path style="fill:#532744;" d="M383.013,333.266c-2.216,10.919-1.424,38.297,11.077,48.583c9.811,3.165,26.902,3.956,31.492-2.849
			c4.589-6.805-4.115-25.637-6.963-37.505c-2.849-11.869-2.532-15.35-2.532-15.35s-2.374,10.761,1.741,22.313
			c4.115,11.552,8.674,28.615,2.833,31.082c-5.84,2.467-5.365-13.991-8.214-26.176c-2.848-12.185-4.747-17.566-4.747-17.566
			s3.165,14.084,3.165,20.731c0,6.646,4.431,21.839,1.899,23.263c-2.532,1.424-8.071,3.165-9.178-6.488
			c-1.108-9.653-9.02-39.879-7.438-51.431c1.583-11.552,0.791-13.135,0.791-13.135s-1.424,9.179-2.532,15.192
			c-1.108,6.014-0.316,31.967,2.057,41.62c2.374,9.653,2.216,14.084-1.741,12.027C390.767,375.519,379.689,359.378,383.013,333.266z
			"/>
		<g>
			<defs>
				<rect id="SVGID_00000129906684949876584300000006564517103584564410_" width="500" height="500"/>
			</defs>
			<clipPath id="SVGID_00000107546944463730986540000004306859797085421993_">
				<use xlink:href="#SVGID_00000129906684949876584300000006564517103584564410_"  style="overflow:visible;"/>
			</clipPath>
			<g style="clip-path:url(#SVGID_00000107546944463730986540000004306859797085421993_);">
				<path style="fill:#0E2943;" d="M78.844,497.288c1.819,27.2,1.228,68.29,3.255,98.931c1.531,23.141,35.221,22.63,35.902,1.191
					c1.12-35.276,3.194-87.288,3.194-87.288L78.844,497.288z"/>
				<path style="fill:#0E2943;" d="M105.653,509.284c0,0,36.067,60.138,47.57,79.108c9.699,15.994,34.03,3.573,30.479-11.88
					c-3.684-16.029-23.947-77.694-28.736-87.627C150.176,478.951,105.653,509.284,105.653,509.284z"/>
				<path style="fill:#007D96;" d="M64.137,412.035l23.573,55.127c0,0,0.257,14.117-6.873,14.117
					c-20.71-24.044-46.855-55.612-44.918-69.248C36.91,405.058,64.137,412.035,64.137,412.035z"/>
				<path style="fill:#0F6A80;" d="M73.327,433.525c-2.314,5.223-6.433,16.379-6.982,30.584c4.851,5.911,9.81,11.733,14.493,17.169
					c7.129,0,6.873-14.117,6.873-14.117L73.327,433.525z"/>
				<path style="fill:#007D96;" d="M99.421,340.368c-16.448,2.787-53.096,47.271-59.94,58.964
					c-6.844,11.692-5.249,23.396,3.137,25.665c6.146,1.663,11.603-1.708,20.769-9.061c13.263-10.639,23.61-21.278,23.61-21.278
					L99.421,340.368z"/>
				<path style="fill:#0F6A80;" d="M86.997,394.658l12.424-54.29c-6.072,1.029-14.898,7.743-23.961,16.391
					c-6.948,15.477-8.231,48.714-8.435,56.201C78.494,403.4,86.997,394.658,86.997,394.658z"/>
				<polygon style="fill:#F9BF9E;" points="141.686,345.861 141.788,327.614 117.993,326.111 113.91,344.727 				"/>
				<path style="fill:#F9BF9E;" d="M127.586,333.871c22.96,3.838,29.269-0.101,32.967-12.419c1.883-6.272,3.508-12.156,4.531-17.346
					c1.806-9.163,1.736-16.166-2.096-19.338c-7.25-6-31.777-6.154-38.006,4.046c-6.229,10.2-7.923,21.487-7.585,32.302
					C117.734,331.932,127.586,333.871,127.586,333.871z"/>
				<path style="fill:#F9BF9E;" d="M167.023,311.667c-0.021-0.045-1.94-7.562-1.94-7.562s-3.338,9.435-3.338,11.091
					C161.745,316.788,167.026,311.674,167.023,311.667z"/>
				<path style="fill:#9F303B;" d="M122.494,264.47c-10.347-1.553-24.909,6.25-24.505,22.291
					c0.404,16.041,6.513,34.312,3.926,38.733c3.774,3.019,17.181,9.048,24.457,8.303c19.173-1.963,26.055-10.457,26.859-24.689
					c0.804-14.232,5.657-14.281,5.657-14.281s12.937,1.054,11.55-12.139c-1.386-13.192-9.689-11.109-9.689-11.109
					s-0.154-14.327-19.177-14.197C128.131,257.474,122.494,264.47,122.494,264.47z"/>
				<path style="fill:#81272F;" d="M123.028,266.384c-5.533-0.907-13.516,4.626-16.237,7.075c5.805-0.998,16.301-4.758,16.301-4.758
					s-8.009,5.149-7.208,13.616c4.806-8.581,11.556-10.984,11.556-10.984s5.899,6.314,15.332,8.581
					c-2.851-6.327-12.101-10.411-12.101-10.411s9.242-1.51,12.417-2.417c-3.356-2.812-13.917,0.333-13.917,0.333
					s4.583-2.583,5.167-4.083c-4.333,0.083-8,2.583-8,2.583s-0.044-1.441,3.675-3.8C125.931,262.03,123.028,266.384,123.028,266.384
					z"/>
				<path style="fill:#9F303B;" d="M150.993,317.178c-0.369,3.507-4.984,13.844-12.552,15.966c3.138-2.307,6.922-7.383,6.922-7.383
					L150.993,317.178z"/>
				<path style="fill:#9F303B;" d="M157.084,294.013c-2.307,3.507-3.322,12.921-2.123,16.612c1.754-9.229,5.722-16.243,5.722-16.243
					L157.084,294.013z"/>
				<path style="fill:#9F303B;" d="M101.802,275.185c-4.799,1.754-7.106,13.198-5.537,20.581c0.462-1.938,1.015-3.876,1.015-3.876
					s-0.092,10.89,2.307,16.428c0.277-2.03,1.384-5.907,1.384-5.907L101.802,275.185z"/>
				<path style="fill:#0E2943;" d="M81.175,462.809c0,0-3.436,16.17-5.032,26.104c-1.596,9.933-0.381,15.859,3.679,20.427
					c32.284,8.692,55.184,4.921,67.694-2.007c11.53-6.386,10.606-14.834,8.337-21.641c-2.838-8.514-6.031-20.931-6.74-21.109
					S81.175,462.809,81.175,462.809z"/>
				<path style="fill:#009CB4;" d="M99.567,340.368c-8.482,2.083-16.27,9.31-18.683,29.055c-1.88,15.384-3.541,94.545-3.541,94.545
					s30.457,12.723,75.95,1.928c2.699-32.385,8.482-85.588,8.867-99.853c0.385-14.265-7.01-23.991-28.915-26.602
					C119.804,337.838,108.049,338.284,99.567,340.368z"/>
				<path style="fill:#008CA3;" d="M139,370.461c-0.317,7.449,17.118,27.42,20.605,28.847c0.634-7.132,1.585-11.253,1.585-11.253
					L139,370.461z"/>
				<path style="fill:#E8C0A8;" d="M220.918,330.745c0.129-0.423-0.977-3.644-1.025-6.266c-0.07-3.878,0.274-5.286,1.833-6.981
					c1.622-1.763,3.623-0.005,4.019,0.303c0.396,0.308,6.7-16.164,8.058-18.17c1.357-2.006,3.786-1.66,1.795,3.798
					c-1.991,5.458-2.164,8.165-2.821,10.053c0.375,0.135,9.912,5.022,9.527,10.02c-0.246,3.203-7.361,11.052-8.45,11.836
					C232.766,336.122,220.79,331.168,220.918,330.745z"/>
				<path style="fill:#009CB4;" d="M191.369,383.02l29.234-52.604c0,0,11.409,0.149,14.159,5.099
					c-6.204,31.121-14.873,66.043-26.812,72.909C201.845,411.936,191.369,383.02,191.369,383.02z"/>
				<path style="fill:#007D96;" d="M198.146,370.848c8.416,3.215,14.09,18.629,12.199,26.194
					c-5.106-6.619-15.603-20.331-15.603-20.331L198.146,370.848z"/>
				<path style="fill:#009CB4;" d="M145.711,383.096c15.889,10.5,25.175,16.17,45.735,26.188
					c10.131,4.937,20.475-0.418,22.403-9.157c2.774-12.576-13.158-20.59-24.466-29.124c-12.445-9.393-21.844-16.107-32.489-22.148
					C145.387,342.326,125.996,370.067,145.711,383.096z"/>
			</g>
			<g style="clip-path:url(#SVGID_00000107546944463730986540000004306859797085421993_);">
				<path style="fill:#E8C0A8;" d="M423.865,397.109c8.98,16.062,14.714,27.527,17.537,32.207c5.494,9.106,26.155-0.06,20.48-11.964
					c-8.116-17.024-15.557-28.639-20.154-36.212C437.131,373.567,415.271,381.739,423.865,397.109z"/>
				<path style="fill:#E8C0A8;" d="M443.624,416.199c-11.593,10.746-20.006,17.852-23.342,21.156
					c-6.491,6.428,5.34,21.824,14.131,14.679c12.571-10.219,20.763-18.781,26.156-24.15
					C465.961,422.514,454.717,405.916,443.624,416.199z"/>
				<path style="fill:#BA4150;" d="M431.008,353.479c9.778,12.571,16.584,20.357,24.249,33.957
					c-9.965,15.668-28.341,19.794-33.542,18.594c1.594-7.95-15.795-29.906-19.903-45.589
					C398.815,349,418.037,336.802,431.008,353.479z"/>
				<path style="fill:#F6BB7D;" d="M421.59,402.947c0.069,0.341,0.121,0.67,0.157,0.987c5.475-0.987,21.79-5.035,31.934-19.23
					c-0.188-0.319-0.375-0.627-0.562-0.94C443.208,397.954,426.978,401.977,421.59,402.947z"/>
				<path style="fill:#493753;" d="M434.435,497.288c-1.819,27.2-1.228,68.29-3.255,98.931c-1.531,23.141-35.221,22.63-35.902,1.191
					c-1.12-35.276-3.194-87.288-3.194-87.288L434.435,497.288z"/>
				<path style="fill:#493753;" d="M407.626,509.284c0,0-36.067,60.138-47.57,79.108c-9.699,15.994-34.03,3.573-30.479-11.88
					c3.684-16.029,23.947-77.694,28.736-87.627C363.103,478.951,407.626,509.284,407.626,509.284z"/>
				<polygon style="fill:#F9BF9E;" points="374.091,347.635 375.805,329.468 399.631,330.34 401.843,349.27 				"/>
				<path style="fill:#493753;" d="M432.105,462.809c0,0,3.436,16.17,5.032,26.104c1.596,9.933,0.381,15.859-3.679,20.427
					c-32.284,8.692-55.184,4.921-67.694-2.007c-11.53-6.386-10.606-14.834-8.337-21.641c2.838-8.514,6.031-20.931,6.741-21.109
					C364.877,464.406,432.105,462.809,432.105,462.809z"/>
				<path style="fill:#CE4758;" d="M413.713,340.368c8.482,2.083,19.562,13.164,17.788,36.226
					c-2.2,28.598-5.931,42.947,4.436,87.374c-10.057,12.913-52.829,12.603-75.95,1.928c5.738-26.525,5.552-43.579,3.747-59.675
					c-0.171-1.527-7.115-9.139-6.741-12.95c0.887-9.047,3.192-19.023,3.016-25.546c-0.385-14.265-1.879-25.673,20.026-28.284
					C393.476,337.838,405.231,338.284,413.713,340.368z"/>
				<path style="fill:#BA4150;" d="M430.491,388.306c0.337-3.695,0.689-7.55,1.009-11.712c1.774-23.062-9.306-34.143-17.788-36.226
					c-8.482-2.083-20.237-2.53-33.678-0.928c-21.905,2.61-20.412,14.019-20.026,28.283c0.176,6.523-2.129,16.498-3.016,25.546
					c-0.374,3.811,6.57,11.424,6.741,12.95c0.196,1.748,0.368,3.512,0.521,5.294c3.479-4.571,9.354-12.549,12.907-18.787
					C405.29,399.648,422.493,393.08,430.491,388.306z"/>
				<path style="fill:#E8C0A8;" d="M317.792,365.679c-0.07-0.923,4.903-17.733,4.903-17.733l0.719-7.059l-1.885-10.269l-2.342-0.316
					l0.152,7.389l-0.856,3.841l-1.081-6.979l-1.054-13.947l-2.532-0.055l-0.676,16.354l-1.634-16.117l-2.054,1.191l-0.497,9.003
					l-0.893-8.054l-1.574,1.107l-1.646,6.293l-0.524,0.707l-0.291,4.913l1.836,10.338l6.37,19.762L317.792,365.679z"/>
				<path style="fill:#E8C0A8;" d="M320.306,416.126c-5.234-15.474-9.863-48.935-10.03-56.77c-0.167-7.835,6.126-6.361,7.898,0.57
					c1.772,6.932,14.555,38.729,16.954,47.095C338.834,419.937,324.14,427.462,320.306,416.126z"/>
				<path style="fill:#E8C0A8;" d="M340.702,385.036c-9.804,12.4-17.025,20.715-19.813,24.491
					c-5.426,7.35,8.631,20.744,16.219,12.333c10.851-12.03,17.63-21.749,22.134-27.883
					C363.745,387.843,350.084,373.171,340.702,385.036z"/>
				<path style="fill:#CE4758;" d="M379.942,372.382c-7.787,13.893-12.318,23.188-21.874,35.534
					c-18.309-3.098-29.247-18.429-30.161-23.688c7.945-1.618,21.425-26.17,34.281-36.046
					C371.566,340.976,390.272,353.952,379.942,372.382z"/>
				<path style="fill:#E8C0A8;" d="M389.314,337.107c-23.228,1.535-29.113-3.012-31.568-15.637
					c-1.25-6.428-2.281-12.444-2.783-17.711c-0.885-9.297-0.12-16.259,4.009-19.034c7.811-5.249,32.232-2.962,37.415,7.807
					c5.183,10.769,5.746,22.169,4.334,32.897C399.31,336.157,389.314,337.107,389.314,337.107z"/>
				<path style="fill:#E8C0A8;" d="M352.281,311.09c0.025-0.042,2.682-7.331,2.682-7.331s2.383,9.721,2.218,11.369
					C357.023,316.711,352.277,311.096,352.281,311.09z"/>
				<path style="fill:#643053;" d="M419.65,289.054c0.886-8.859-1.401-17.431-11.961-21.08c0,0-6.124-9.151-19.49-10.579
					c-18.915-2.021-33.742,11.531-36.434,24.52c-2.692,12.989,10.286,13.227,10.286,13.227s3.331,0.545,4.209,14.773
					c1.049,17.007-5.954,25.701-3.79,48.157c2.164,22.455,7.94,32.812,48.375,31.551c41.607-3.803,15.574-40.304,12.214-56.552
					C419.629,316.489,418.054,305.021,419.65,289.054z"/>
				<path style="fill:#532744;" d="M403.396,379.692c-36.039-1.048-30.172-59.087-28.496-74.383
					c1.676-15.296-3.353-15.505-6.915-16.343c-8.006,0.16-15.27-2.378-15.635-9.285c-0.232,0.745-0.431,1.491-0.586,2.235
					c-2.692,12.989,10.286,13.227,10.286,13.227s3.331,0.545,4.208,14.773c1.05,17.007-5.954,25.701-3.79,48.157
					c2.165,22.455,7.94,32.812,48.375,31.551c18.549-1.695,23.65-9.892,23.314-19.893
					C432.244,374.21,425.603,380.338,403.396,379.692z"/>
				<path style="fill:#532744;" d="M366.734,295.391c1.855,7.557,0.578,18.795-3.086,27.797
					c-3.664,9.002-11.358,32.191-5.275,48.158c-3.666-14.939,1.131-33.484,7.228-49.922
					C371.699,304.986,366.734,295.391,366.734,295.391z"/>
				<path style="fill:#F6BB7D;" d="M401.292,469.104c16.28-0.063,25.185-2.805,34.02-7.876c-0.076-0.335-0.157-0.682-0.231-1.014
					c-8.906,5.182-17.448,7.826-33.792,7.89c-0.138,0.001-0.272,0.001-0.41,0.001c-18.44,0-34.126-4.78-39.94-6.803
					c-0.064,0.323-0.139,0.662-0.205,0.988c5.988,2.073,21.705,6.815,40.145,6.815C401.015,469.105,401.154,469.105,401.292,469.104
					z"/>
				<path style="fill:#F6BB7D;" d="M330.699,382.915c-0.288,0.195-0.57,0.372-0.848,0.528c3.035,4.662,13.102,18.124,30.122,21.959
					c0.221-0.297,0.432-0.589,0.648-0.883C343.696,400.897,333.686,387.504,330.699,382.915z"/>
			</g>
		</g>
	</g>
</g>
</svg>
