<svg xmlns="http://www.w3.org/2000/svg" fill="none" viewBox="0 0 48 48" height="48" width="48" id="Handyman--Streamline-Kameleon.svg"><desc>Handyman Streamline Icon: https://streamlinehq.com</desc><path fill="#deeeff" d="M24 48c13.254981818181818 0 24 -10.74501818181818 24 -24S37.25498181818182 0 24 0 0 10.74501818181818 0 24s10.74501818181818 24 24 24Z" stroke-width="1"></path><path fill="#6bafff" fill-rule="evenodd" d="M18.025745454545454 17.13861818181818c1.1886545454545454 -0.33425454545454547 3.3473454545454544 -0.8168727272727273 5.9624727272727265 -0.8373818181818181v-0.00043636363636363637h0.023563636363636363v0.00043636363636363637c2.6155636363636363 0.020509090909090907 4.7742545454545455 0.5031272727272728 5.9624727272727265 0.8373818181818181 0.10734545454545454 0.7518545454545454 0.1330909090909091 1.5883636363636364 0.13483636363636362 2.4964363636363633v0.48479999999999995s0 -0.48479999999999995 0.43636363636363634 -0.48479999999999995 0.8727272727272727 0.48479999999999995 0.8727272727272727 0.9695999999999999c0 1.4199272727272727 -0.4180363636363636 3.296290909090909 -1.6551272727272728 3.385309090909091L28.363636363636363 27.488290909090907l-2.2276363636363636 1.7437090909090909a1.3086545454545455 1.3086545454545455 0 0 1 -0.9774545454545455 0.4381090909090909h-2.3170909090909086a1.3086545454545455 1.3086545454545455 0 0 1 -0.9774545454545455 -0.4381090909090909L19.636363636363637 27.488290909090907l-1.3994181818181817 -3.4983272727272725C16.999854545454543 23.900945454545454 16.581818181818182 22.024145454545454 16.581818181818182 20.604654545454544c0 -0.48479999999999995 0.43636363636363634 -0.9695999999999999 0.8727272727272727 -0.9695999999999999s0.43636363636363634 0.48479999999999995 0.43636363636363634 0.48479999999999995v-0.48479999999999995c0.0017454545454545455 -0.9076363636363636 0.02749090909090909 -1.7445818181818182 0.13483636363636362 -2.4964363636363633Z" clip-rule="evenodd" stroke-width="1"></path><path fill="#6bafff" d="M25.158545454545454 29.67010909090909h-2.3170909090909086a1.3086545454545455 1.3086545454545455 0 0 1 -0.9774545454545455 -0.4381090909090909L19.636363636363637 27.488290909090907v1.9636363636363636s0 3.2727272727272725 4.363636363636363 3.2727272727272725 4.363636363636363 -3.2727272727272725 4.363636363636363 -3.2727272727272725v-1.9636363636363636l-2.2276363636363636 1.7437090909090909a1.3086545454545455 1.3086545454545455 0 0 1 -0.9774545454545455 0.4381090909090909Z" stroke-width="1"></path><path fill="#2e3ecd" d="M21.818181818181817 24.87010909090909h4.363636363636363s0 1.309090909090909 -2.1818181818181817 1.309090909090909 -2.1818181818181817 -1.309090909090909 -2.1818181818181817 -1.309090909090909Z" stroke-width="1"></path><path fill="#2e3ecd" d="M24.00087272727273 37.96232727272727H37.96363636363636l-1.7454545454545454 -4.8a2.6168727272727272 2.6168727272727272 0 0 0 -1.3278545454545454 -1.3012363636363637L29.236363636363635 29.67141818181818l-0.8727272727272727 -0.43636363636363634S27.927272727272726 32.72727272727273 24 32.72727272727273s-4.363636363636363 -3.4922181818181817 -4.363636363636363 -3.4922181818181817l-0.8727272727272727 0.43636363636363634 -5.6539636363636365 2.189672727272727A2.6168727272727272 2.6168727272727272 0 0 0 11.781818181818181 33.16232727272727l-1.7454545454545454 4.8h13.962763636363636L24 37.96363636363636l0.0008727272727272727 -0.001309090909090909Z" stroke-width="1"></path><path fill="#2e3ecd" d="M22.68829090909091 20.52349090909091a0.8727272727272727 0.8727272727272727 0 0 0 -0.8727272727272727 -0.8727272727272727l-0.002618181818181818 0c0.00043636363636363637 0.009163636363636363 0.002618181818181818 0.01789090909090909 0.002618181818181818 0.027054545454545453a0.8727272727272727 0.8727272727272727 0 0 1 -0.8701090909090908 0.8727272727272727 0.8709818181818182 0.8709818181818182 0 0 0 1.7428363636363637 -0.027054545454545453Z" stroke-width="1"></path><path fill="#2e3ecd" d="M27.048872727272727 20.52349090909091a0.8727272727272727 0.8727272727272727 0 0 0 -0.8727272727272727 -0.8727272727272727l-0.002618181818181818 0c0 0.009163636363636363 0.002618181818181818 0.01789090909090909 0.002618181818181818 0.027054545454545453a0.8727272727272727 0.8727272727272727 0 0 1 -0.8701090909090908 0.8727272727272727 0.8709818181818182 0.8709818181818182 0 0 0 1.7428363636363637 -0.027054545454545453Z" stroke-width="1"></path><path fill="#6bafff" d="M32.72727272727273 35.344145454545455V30.98181818181818l-2.1818181818181817 -0.8727272727272727v3.4896H17.454545454545453V30.10909090909091l-2.1818181818181817 0.8727272727272727v4.362327272727272L14.399999999999999 37.96363636363636h19.2l-0.8727272727272727 -2.619490909090909Z" stroke-width="1"></path><path fill="#2e3ecd" d="M29.236363636363635 35.345454545454544H18.763636363636362v1.3077818181818182h10.472727272727273V35.345454545454544Z" stroke-width="1"></path><path fill="#2e3ecd" d="M29.06443636363636 19.82618181818182c0.35825454545454544 1.9125818181818182 0.17192727272727273 4.2143999999999995 0.17192727272727273 4.608872727272726l0.43636363636363634 0 0.43636363636363634 -0.8727272727272727c0 -0.3922909090909091 0.27709090909090905 -3.165381818181818 0.3896727272727273 -4.750690909090909 -0.24392727272727274 0.7431272727272727 -0.5860363636363636 1.3671272727272727 -1.4343272727272727 1.0145454545454546Z" stroke-width="1"></path><path fill="#2e3ecd" d="M18.935563636363636 19.82618181818182c-0.848290909090909 0.35301818181818184 -1.1912727272727273 -0.2714181818181818 -1.4343272727272727 -1.0141090909090908 0.11258181818181819 1.5848727272727272 0.3896727272727273 4.357963636363636 0.3896727272727273 4.750254545454545l0.43636363636363634 0.8727272727272727 0.43636363636363634 0c0 -0.39447272727272725 -0.1863272727272727 -2.696290909090909 0.17192727272727273 -4.608872727272726Z" stroke-width="1"></path><path fill="#2e3ecd" d="M24.87272727272727 26.581963636363636h-1.7454545454545454c0.7365818181818181 2.2101818181818182 -1.309090909090909 2.618181818181818 -1.309090909090909 2.618181818181818s0.6820363636363636 0.8727272727272727 2.1818181818181817 0.8727272727272727c1.499781818181818 0 2.1818181818181817 -0.8727272727272727 2.1818181818181817 -0.8727272727272727s-2.045672727272727 -0.40800000000000003 -1.309090909090909 -2.618181818181818Z" stroke-width="1"></path><path fill="#2e3ecd" d="m24.00130909090909 16.333963636363638 -0.011781818181818181 -0.00043636363636363637 -0.011781818181818181 0c-4.061672727272727 0.032290909090909085 -7.042036363636364 1.1825454545454546 -6.9578181818181815 1.1537454545454546 0.25745454545454544 0.9495272727272728 0.49876363636363635 3.2727272727272725 1.9946181818181816 2.554909090909091 0.6174545454545455 -0.2962909090909091 2.4877090909090906 -1.3055999999999999 4.974981818181818 -1.309090909090909 2.4872727272727273 0.0030545454545454543 4.357527272727273 1.0123636363636364 4.974981818181818 1.309090909090909 1.496290909090909 0.7178181818181818 1.7847272727272725 -1.6058181818181818 1.9946181818181816 -2.554909090909091 0.08421818181818182 0.0288 -2.8961454545454544 -1.1210181818181817 -6.9578181818181815 -1.1533090909090908Z" stroke-width="1"></path><path fill="#2e3ecd" d="M23.98821818181818 16.34618181818182v-0.00043636363636363637l0.011781818181818181 0 0.011781818181818181 0c4.032436363636363 0.032290909090909085 6.995345454545454 1.1646545454545454 6.9552 1.1528727272727273l0.014836363636363637 0.0008727272727272727 -0.8727272727272727 -4.8 -6.1090909090909085 -2.1818181818181817 -6.1090909090909085 2.1818181818181817 -0.8727272727272727 4.8 0.0144 -0.0008727272727272727c-0.04014545454545454 0.011781818181818181 2.9227636363636362 -1.1205818181818181 6.955636363636363 -1.1524363636363635Z" stroke-width="1"></path><path fill="#6bafff" fill-rule="evenodd" d="M30.98181818181818 19.93832727272727v-2.4392727272727273l-0.17585454545454546 -0.9674181818181818 -0.01309090909090909 -0.015272727272727273c-0.5005090909090909 -0.17105454545454546 -1.034181818181818 -0.3010909090909091 -1.5504 -0.42109090909090907a24.35912727272727 24.35912727272727 0 0 0 -4.357963636363636 -0.5986909090909092h-1.7690181818181818a24.35869090909091 24.35869090909091 0 0 0 -4.357963636363636 0.5986909090909092 19.335272727272727 19.335272727272727 0 0 0 -1.5613090909090908 0.42327272727272724L17.018181818181816 17.499927272727273v2.4379636363636363c0.1562181818181818 0.2661818181818182 0.3831272727272727 0.545890909090909 0.7213090909090909 0.7278545454545454 0.5419636363636363 0.2914909090909091 1.1310545454545455 0.21294545454545452 1.6629818181818181 -0.04232727272727273l0.14792727272727274 -0.072c0.7261090909090908 -0.35519999999999996 2.3450181818181814 -1.1476363636363636 4.449599999999999 -1.1511272727272726 2.1067636363636364 0.002618181818181818 3.726545454545454 0.7968 4.45090909090909 1.152l0.1461818181818182 0.0706909090909091 0.00043636363636363637 0c0.5323636363636364 0.2557090909090909 1.1214545454545453 0.33425454545454547 1.6634181818181817 0.042763636363636365 0.3381818181818182 -0.1815272727272727 0.5646545454545454 -0.4612363636363636 0.7208727272727272 -0.7269818181818181Zm-6.120872727272727 -3.569454545454545a18.91330909090909 18.91330909090909 0 0 0 -1.7218909090909091 0c-2.3380363636363635 0.10778181818181817 -4.2370909090909095 0.5589818181818181 -5.266909090909091 0.857890909090909l-0.02749090909090909 0.007854545454545454a11.297454545454546 11.297454545454546 0 0 0 -0.812509090909091 0.26399999999999996l-0.0017454545454545455 0.00043636363636363637c0.13658181818181817 0.2386909090909091 0.23563636363636364 0.5755636363636363 0.3381818181818182 0.9237818181818181 0.2727272727272727 0.9255272727272726 0.5698909090909091 1.9348363636363637 1.6564363636363635 1.413381818181818l0.14705454545454547 -0.072c0.7339636363636363 -0.36 2.513890909090909 -1.2340363636363636 4.827927272727273 -1.237090909090909 2.315781818181818 0.002618181818181818 4.096581818181818 0.8779636363636363 4.829672727272727 1.2379636363636364l0.14530909090909092 0.07112727272727272c1.0874181818181818 0.5214545454545455 1.3845818181818181 -0.48829090909090905 1.6568727272727273 -1.4138181818181819 0.10254545454545454 -0.3482181818181818 0.2016 -0.6846545454545454 0.3377454545454545 -0.922909090909091l-0.001309090909090909 -0.0008727272727272727a11.306618181818182 11.306618181818182 0 0 0 -0.8129454545454545 -0.26399999999999996l-0.027054545454545453 -0.007854545454545454c-1.0302545454545455 -0.2989090909090909 -2.928872727272727 -0.750109090909091 -5.266909090909091 -0.857890909090909Z" clip-rule="evenodd" stroke-width="1"></path><path fill="#6bafff" d="M24 14.836363636363636c1.2048 0 2.1818181818181817 -0.39054545454545453 2.1818181818181817 -0.8727272727272727s-0.9770181818181817 -0.8727272727272727 -2.1818181818181817 -0.8727272727272727 -2.1818181818181817 0.39054545454545453 -2.1818181818181817 0.8727272727272727 0.9770181818181817 0.8727272727272727 2.1818181818181817 0.8727272727272727Z" stroke-width="1"></path><path fill="#2e3ecd" fill-rule="evenodd" d="M28.357090909090907 27.4896 26.081454545454545 29.271272727272724l-0.030545454545454546 0.024436363636363635 -0.02618181818181818 0.029236363636363637a1.008 1.008 0 0 1 -0.7527272727272727 0.3373090909090909h-2.5562181818181817a1.008 1.008 0 0 1 -0.752290909090909 -0.3373090909090909l-0.02618181818181818 -0.029236363636363637 -0.030545454545454546 -0.024436363636363635 -2.276509090909091 -1.7812363636363635v1.1083636363636362l1.7096727272727272 1.3374545454545455a1.8807272727272724 1.8807272727272724 0 0 0 1.3758545454545454 0.5991272727272727h2.555781818181818a1.8807272727272724 1.8807272727272724 0 0 0 1.376290909090909 -0.5991272727272727l1.7092363636363634 -1.3374545454545455v-1.1083636363636362Z" clip-rule="evenodd" stroke-width="1"></path></svg>