<svg xmlns="http://www.w3.org/2000/svg" fill="none" viewBox="0 0 48 48" height="48" width="48" id="Light-Bulb-2--Streamline-Kameleon.svg"><desc>Light Bulb 2 Streamline Icon: https://streamlinehq.com</desc><path fill="#deeeff" d="M24 48c13.254981818181818 0 24 -10.74501818181818 24 -24S37.25498181818182 0 24 0 0 10.74501818181818 0 24s10.74501818181818 24 24 24Z" stroke-width="1"></path><path fill="#2e3ecd" d="M24 31.418181818181818H17.018181818181816c0 1.9889454545454543 2.331490909090909 4.8 5.236363636363636 4.8v1.7454545454545454h3.4909090909090907v-1.7454545454545454c2.902254545454545 0 5.236363636363636 -2.8088727272727274 5.236363636363636 -4.8H24Z" stroke-width="1"></path><path fill="#2e3ecd" d="M28.803490909090907 16.78341818181818 24 17.723781818181816l-5.474181818181818 1.0721454545454545a1.7454545454545454 1.7454545454545454 0 0 0 0.670690909090909 3.425890909090909L24 21.281454545454547l5.474181818181818 -1.0721454545454545a1.7454545454545454 1.7454545454545454 0 0 0 -0.670690909090909 -3.4254545454545453Z" stroke-width="1"></path><path fill="#2e3ecd" d="M28.803490909090907 20.71069090909091 24 21.651054545454542l-5.474181818181818 1.0721454545454545a1.7454545454545454 1.7454545454545454 0 0 0 -1.3776 2.048290909090909 1.7428363636363637 1.7428363636363637 0 0 0 1.398109090909091 1.3780363636363635C19.367563636363634 26.871272727272725 19.636363636363637 27.620072727272724 19.636363636363637 29.672727272727272h3.4909090909090907c0 -1.616290909090909 -0.15534545454545454 -2.9585454545454546 -0.7343999999999999 -4.149818181818182L24 25.208727272727273l1.3605818181818181 -0.2661818181818182C24.833454545454543 26.689745454545452 24.8544 28.470981818181816 24.87272727272727 29.672727272727272h3.4909090909090907c-0.07549090909090908 -4.814836363636363 1.5037090909090909 -5.668363636363636 1.5037090909090909 -5.668363636363636a1.7428363636363637 1.7428363636363637 0 0 0 0.9844363636363634 -1.916509090909091 1.7454545454545454 1.7454545454545454 0 0 0 -2.048290909090909 -1.3771636363636364Z" stroke-width="1"></path><path fill="#2e3ecd" d="M19.19650909090909 18.294545454545453 24 17.354181818181818l5.474181818181818 -1.0721454545454545a1.7454545454545454 1.7454545454545454 0 0 0 -0.670690909090909 -3.4254545454545453L24 13.796072727272726l-5.474181818181818 1.0721454545454545a1.7454545454545454 1.7454545454545454 0 0 0 0.670690909090909 3.425890909090909Z" stroke-width="1"></path><path fill="#2e3ecd" d="m19.19650909090909 14.367272727272725 4.601454545454545 -0.8722909090909091c0.0706909090909091 -0.013963636363636364 0.13527272727272727 -0.03927272727272727 0.20203636363636363 -0.06109090909090909 0.8277818181818182 -0.2688 1.3470545454545455 -1.1118545454545454 1.1755636363636364 -1.9872 -0.1261090909090909 -0.6436363636363637 -0.5934545454545455 -1.1271272727272728 -1.1755636363636364 -1.3169454545454544a1.728 1.728 0 0 0 -0.8727272727272727 -0.060654545454545454l-4.601454545454545 0.8727272727272727a1.7454545454545454 1.7454545454545454 0 0 0 0.670690909090909 3.4254545454545453Z" stroke-width="1"></path><path fill="#6bafff" fill-rule="evenodd" d="M17.018181818181816 29.672727272727272h13.963636363636363v1.7454545454545454H17.018181818181816v-1.7454545454545454Z" clip-rule="evenodd" stroke-width="1"></path></svg>