<svg xmlns="http://www.w3.org/2000/svg" viewBox="0 0 24 24" height="24" width="24" id="Taxi-1--Streamline-Ultimate.svg"><desc>Taxi 1 Streamline Icon: https://streamlinehq.com</desc><defs></defs><title>taxi-1</title><path d="M20.5 11a2 2 0 0 1 2 2v4h-21v-3a3 3 0 0 1 3 -3Z" fill="#9feaff" stroke-width="1"></path><path d="M20.5 11h-16a3 3 0 0 0 -3 3v2.5a3 3 0 0 1 3 -3h16a2 2 0 0 1 2 2V13a2 2 0 0 0 -2 -2Z" fill="#dff9ff" stroke-width="1"></path><path d="M5.5 11a5.827 5.827 0 0 1 5.578 -4H15.5a1 1 0 0 1 0.894 0.553L18.118 11Z" fill="#9feaff" stroke-width="1"></path><path d="M14.5 7h-3.422A5.827 5.827 0 0 0 5.5 11h5Z" fill="#dff9ff" stroke-width="1"></path><path d="M19.5 12.75a0.25 0.25 0 0 0 -0.25 0.25" stroke="#00303e" stroke-linecap="round" stroke-linejoin="round" fill="none" stroke-width="1"></path><path d="M19.75 13a0.25 0.25 0 0 0 -0.25 -0.25" stroke="#00303e" stroke-linecap="round" stroke-linejoin="round" fill="none" stroke-width="1"></path><path d="M19.5 13.25a0.25 0.25 0 0 0 0.25 -0.25" stroke="#00303e" stroke-linecap="round" stroke-linejoin="round" fill="none" stroke-width="1"></path><path d="M19.25 13a0.25 0.25 0 0 0 0.25 0.25" stroke="#00303e" stroke-linecap="round" stroke-linejoin="round" fill="none" stroke-width="1"></path><path d="M17 12.75a0.25 0.25 0 0 0 -0.25 0.25" stroke="#00303e" stroke-linecap="round" stroke-linejoin="round" fill="none" stroke-width="1"></path><path d="M17.25 13a0.25 0.25 0 0 0 -0.25 -0.25" stroke="#00303e" stroke-linecap="round" stroke-linejoin="round" fill="none" stroke-width="1"></path><path d="M17 13.25a0.25 0.25 0 0 0 0.25 -0.25" stroke="#00303e" stroke-linecap="round" stroke-linejoin="round" fill="none" stroke-width="1"></path><path d="M16.75 13a0.25 0.25 0 0 0 0.25 0.25" stroke="#00303e" stroke-linecap="round" stroke-linejoin="round" fill="none" stroke-width="1"></path><path d="M14.5 12.75a0.25 0.25 0 0 0 -0.25 0.25" stroke="#00303e" stroke-linecap="round" stroke-linejoin="round" fill="none" stroke-width="1"></path><path d="M14.75 13a0.25 0.25 0 0 0 -0.25 -0.25" stroke="#00303e" stroke-linecap="round" stroke-linejoin="round" fill="none" stroke-width="1"></path><path d="M14.5 13.25a0.25 0.25 0 0 0 0.25 -0.25" stroke="#00303e" stroke-linecap="round" stroke-linejoin="round" fill="none" stroke-width="1"></path><path d="M14.25 13a0.25 0.25 0 0 0 0.25 0.25" stroke="#00303e" stroke-linecap="round" stroke-linejoin="round" fill="none" stroke-width="1"></path><path d="M12 12.75a0.25 0.25 0 0 0 -0.25 0.25" stroke="#00303e" stroke-linecap="round" stroke-linejoin="round" fill="none" stroke-width="1"></path><path d="M12.25 13a0.25 0.25 0 0 0 -0.25 -0.25" stroke="#00303e" stroke-linecap="round" stroke-linejoin="round" fill="none" stroke-width="1"></path><path d="M12 13.25a0.25 0.25 0 0 0 0.25 -0.25" stroke="#00303e" stroke-linecap="round" stroke-linejoin="round" fill="none" stroke-width="1"></path><path d="M11.75 13a0.25 0.25 0 0 0 0.25 0.25" stroke="#00303e" stroke-linecap="round" stroke-linejoin="round" fill="none" stroke-width="1"></path><path d="M9.5 12.75a0.25 0.25 0 0 0 -0.25 0.25" stroke="#00303e" stroke-linecap="round" stroke-linejoin="round" fill="none" stroke-width="1"></path><path d="M9.75 13a0.25 0.25 0 0 0 -0.25 -0.25" stroke="#00303e" stroke-linecap="round" stroke-linejoin="round" fill="none" stroke-width="1"></path><path d="M9.5 13.25a0.25 0.25 0 0 0 0.25 -0.25" stroke="#00303e" stroke-linecap="round" stroke-linejoin="round" fill="none" stroke-width="1"></path><path d="M9.25 13a0.25 0.25 0 0 0 0.25 0.25" stroke="#00303e" stroke-linecap="round" stroke-linejoin="round" fill="none" stroke-width="1"></path><path d="M7 12.75a0.25 0.25 0 0 0 -0.25 0.25" stroke="#00303e" stroke-linecap="round" stroke-linejoin="round" fill="none" stroke-width="1"></path><path d="M7.25 13a0.25 0.25 0 0 0 -0.25 -0.25" stroke="#00303e" stroke-linecap="round" stroke-linejoin="round" fill="none" stroke-width="1"></path><path d="M7 13.25a0.25 0.25 0 0 0 0.25 -0.25" stroke="#00303e" stroke-linecap="round" stroke-linejoin="round" fill="none" stroke-width="1"></path><path d="M6.75 13a0.25 0.25 0 0 0 0.25 0.25" stroke="#00303e" stroke-linecap="round" stroke-linejoin="round" fill="none" stroke-width="1"></path><path d="M4.5 12.75a0.25 0.25 0 0 0 -0.25 0.25" stroke="#00303e" stroke-linecap="round" stroke-linejoin="round" fill="none" stroke-width="1"></path><path d="M4.75 13a0.25 0.25 0 0 0 -0.25 -0.25" stroke="#00303e" stroke-linecap="round" stroke-linejoin="round" fill="none" stroke-width="1"></path><path d="M4.5 13.25a0.25 0.25 0 0 0 0.25 -0.25" stroke="#00303e" stroke-linecap="round" stroke-linejoin="round" fill="none" stroke-width="1"></path><path d="M4.25 13a0.25 0.25 0 0 0 0.25 0.25" stroke="#00303e" stroke-linecap="round" stroke-linejoin="round" fill="none" stroke-width="1"></path><path d="m5.5 17 -5 0" stroke="#00303e" stroke-linecap="round" stroke-linejoin="round" fill="none" stroke-width="1"></path><path d="m16.5 17 -7 0" stroke="#00303e" stroke-linecap="round" stroke-linejoin="round" fill="none" stroke-width="1"></path><path d="m23.5 17 -3 0" stroke="#00303e" stroke-linecap="round" stroke-linejoin="round" fill="none" stroke-width="1"></path><path d="M20.5 11a2 2 0 0 1 2 2v4h-21v-3a3 3 0 0 1 3 -3Z" stroke="#00303e" stroke-linecap="round" stroke-linejoin="round" fill="none" stroke-width="1"></path><path d="M14.563 6.972c0 0.045 -0.3 -1.023 -0.461 -1.606A0.5 0.5 0 0 0 13.62 5h-1.3a0.5 0.5 0 0 0 -0.454 0.291L11.078 7Z" fill="#9feaff" stroke="#00303e" stroke-linecap="round" stroke-linejoin="round" stroke-width="1"></path><path d="m11.5 7 0 4" stroke="#00303e" stroke-linecap="round" stroke-linejoin="round" fill="none" stroke-width="1"></path><path d="M5.5 11a5.827 5.827 0 0 1 5.578 -4H15.5a1 1 0 0 1 0.894 0.553L18.118 11Z" stroke="#00303e" stroke-linecap="round" stroke-linejoin="round" fill="none" stroke-width="1"></path><path d="M16.5 17a2 2 0 1 0 4 0 2 2 0 1 0 -4 0" fill="#9feaff" stroke="#00303e" stroke-linecap="round" stroke-linejoin="round" stroke-width="1"></path><path d="M5.5 17a2 2 0 1 0 4 0 2 2 0 1 0 -4 0" fill="#9feaff" stroke="#00303e" stroke-linecap="round" stroke-linejoin="round" stroke-width="1"></path></svg>