<svg 
          width="10.449990272521973" 
          height="10.449999809265137" fill="none" 
          xmlns="http://www.w3.org/2000/svg">
          <path d="M 4.530851898600186 0.012945301134127379 C 2.032410776701409 0.012945301134127379 0 2.045357680464638 0 4.543800787294971 C 0 7.042243894125303 2.032410776701409 9.074656594152103 4.530851898600186 9.074656594152103 C 5.294624041842411 9.074656594152103 6.045450751971475 8.893422585641844 6.679770030121093 8.543899433319153 C 6.730579759418992 8.60504426057501 6.786914184395056 8.661378113026899 6.848058963073342 8.712187882691502 L 8.14258807695911 10.006718025039243 C 8.262121085528939 10.141220315050662 8.407883962556562 10.249872015081143 8.57092763940477 10.326001822502839 C 8.733971316252978 10.402131629924535 8.910854729301475 10.444133511588857 9.090718406760901 10.44942820791635 C 9.270582084220328 10.454722904243843 9.449630065289638 10.423198921432338 9.616869622949297 10.356791752608194 C 9.784109180608956 10.29038458378405 9.936011259962992 10.190495198520553 10.063249181233749 10.063257176163338 C 10.190487102504505 9.936019153806123 10.290376408409143 9.784117571050821 10.356783524474956 9.616877880524681 C 10.423190640540769 9.449638189998542 10.454713363748331 9.270590066681338 10.449418671627303 9.090726246325973 C 10.444123979506275 8.910862425970608 10.402122748490658 8.733978872393896 10.325993001551613 8.570935066012703 C 10.249863254612567 8.40789125963151 10.141212258181902 8.262128266799943 10.006710075028165 8.14259516326496 L 8.712180961142398 6.84806502091722 C 8.649121492112352 6.784982864970719 8.579711392853424 6.728586807083843 8.505056500450141 6.679775954264795 C 8.85457937508809 6.045456172168801 9.074649384633428 5.307573614489743 9.074649384633428 4.530855498217095 C 9.074649384633428 2.0324123913867624 7.042238299292228 0 4.543797177393452 0 L 4.530851898600186 0.012945301134127379 Z M 4.530851898600186 1.3074754314256172 C 6.330247348383015 1.3074754314256172 7.767174683314604 2.744403907950012 7.767174683314604 4.543800787294971 C 7.767174683314604 5.398190715194884 7.456487876536298 6.187854120545409 6.912785665679464 6.77039266916989 C 6.899840374829956 6.783337970304018 6.886894811509382 6.796283543909428 6.873949520659874 6.809228845043555 C 6.812804741981588 6.860038614708159 6.756470317005524 6.9163730844401226 6.705660587707625 6.977517911695979 C 6.136067780684285 7.495329976351076 5.359350512968689 7.793072049522274 4.5179066198069195 7.793072049522274 C 2.7185111700240903 7.793072049522274 1.2815838350925013 6.356142955717805 1.2815838350925013 4.556746076372846 C 1.2815838350925013 2.757349197027888 2.7185111700240903 1.3204207205034932 4.5179066198069195 1.3204207205034932 L 4.530851898600186 1.3074754314256172 Z" fill="rgb(0,0,0)"/>
        </svg>